<?xml version="1.0" encoding="utf-8"?>
<!-- Generator: Adobe Illustrator 27.5.0, SVG Export Plug-In . SVG Version: 6.00 Build 0)  -->
<svg version="1.1" xmlns="http://www.w3.org/2000/svg" xmlns:xlink="http://www.w3.org/1999/xlink" x="0px" y="0px"
	 viewBox="0 0 500 500" style="enable-background:new 0 0 500 500;" xml:space="preserve">
<g id="BACKGROUND">
	<polyline style="fill:#FFFFFF;" points="500,0 500,500 0,500 0,0 	"/>
</g>
<g id="OBJECTS">
	<g>
		<g>
			<rect style="fill:#E9F2F2;" width="250" height="250"/>
		</g>
		<g>
			<path style="fill:#0B2835;" d="M143.883,148.607l-2.356-1.976c1.247-1.486,2.429-3.055,3.516-4.662l2.547,1.721
				C146.445,145.386,145.197,147.04,143.883,148.607z"/>
			<path style="fill:#0B2835;" d="M99.285,169.784h-0.774c-32.636,0-59.188-26.551-59.188-59.188s26.552-59.188,59.188-59.188
				c32.636,0,59.188,26.552,59.188,59.188c0,11.861-3.495,23.304-10.109,33.094l-2.548-1.721c6.269-9.279,9.582-20.128,9.582-31.372
				c0-30.941-25.172-56.113-56.113-56.113s-56.113,25.172-56.113,56.113s25.172,56.113,56.113,56.113h0.774V169.784z"/>
			<path style="fill:#0B2835;" d="M99.194,149.362c-22.121,0-39.448-17.028-39.448-38.766c0-21.376,17.391-38.766,38.766-38.766
				s38.766,17.391,38.766,38.766c0,8.497-2.858,16.896-8.048,23.651l-2.438-1.874c4.779-6.22,7.411-13.954,7.411-21.777
				c0-19.681-16.011-35.692-35.692-35.692c-19.681,0-35.691,16.011-35.691,35.692c0,20.348,15.637,35.692,36.374,35.692V149.362z"/>
			<path style="fill:#0B2835;" d="M98.512,128.94c-10.115,0-18.344-8.229-18.344-18.344c0-10.115,8.229-18.344,18.344-18.344
				c10.115,0,18.344,8.229,18.344,18.344C116.856,120.711,108.626,128.94,98.512,128.94z M98.512,95.326
				c-8.42,0-15.27,6.85-15.27,15.27c0,8.419,6.85,15.269,15.27,15.269c8.419,0,15.269-6.85,15.269-15.269
				C113.781,102.176,106.931,95.326,98.512,95.326z"/>
			<path style="fill:#0B2835;" d="M98.512,142.054c-17.346,0-31.458-14.112-31.458-31.458s14.112-31.458,31.458-31.458
				c17.346,0,31.458,14.112,31.458,31.458c0,1.295-0.08,2.6-0.237,3.877l-3.052-0.375c0.142-1.153,0.214-2.331,0.214-3.502
				c0-15.651-12.733-28.384-28.383-28.384s-28.384,12.733-28.384,28.384s12.733,28.383,28.384,28.383
				c0.97,0,1.948-0.049,2.904-0.146l0.31,3.059C100.667,141.999,99.586,142.054,98.512,142.054z"/>
			<path style="fill:#0B2835;" d="M98.512,135.158c-13.543,0-24.561-11.018-24.561-24.561c0-13.543,11.018-24.561,24.561-24.561
				c13.543,0,24.561,11.018,24.561,24.561c0,4.265-1.111,8.467-3.212,12.153l-0.67,1.317l-2.739-1.395l0.704-1.381
				c1.872-3.286,2.843-6.962,2.843-10.693c0-11.848-9.639-21.487-21.487-21.487s-21.487,9.639-21.487,21.487
				s9.639,21.487,21.487,21.487c1.529,0,3.054-0.161,4.532-0.479l0.646,3.006C102,134.973,100.258,135.158,98.512,135.158z"/>
			<path style="fill:#0B2835;" d="M156.023,217.067c-32.636,0-59.188-26.552-59.188-59.188c0-13.19,4.435-26.143,12.489-36.472
				l2.425,1.891c-7.635,9.792-11.839,22.073-11.839,34.581c0,30.941,25.172,56.113,56.113,56.113
				c30.941,0,56.114-25.172,56.114-56.113c0-30.941-25.172-56.114-56.114-56.114h-0.747V98.69h0.747
				c32.637,0,59.188,26.552,59.188,59.188C215.212,190.515,188.66,217.067,156.023,217.067z"/>
			<path style="fill:#0B2835;" d="M156.023,196.645c-21.376,0-38.766-17.391-38.766-38.766c0-9.431,3.411-18.519,9.606-25.59
				l2.313,2.026c-5.703,6.51-8.844,14.878-8.844,23.564c0,19.681,16.011,35.691,35.692,35.691c19.681,0,35.691-16.011,35.691-35.691
				s-16.011-35.692-35.691-35.692v-3.075c21.375,0,38.766,17.391,38.766,38.766S177.399,196.645,156.023,196.645z"/>
			<path style="fill:#0B2835;" d="M98.512,162.288c-28.503,0-51.692-23.189-51.692-51.691c0-28.503,23.189-51.692,51.692-51.692
				s51.692,23.189,51.692,51.692c0,11.262-3.559,21.966-10.291,30.956l-2.461-1.843c6.33-8.454,9.677-18.521,9.677-29.113
				c0-26.808-21.809-48.617-48.617-48.617c-26.808,0-48.617,21.809-48.617,48.617c0,26.807,21.809,48.617,48.617,48.617V162.288z"/>
			<path style="fill:#0B2835;" d="M98.512,155.839c-24.948,0-45.244-20.296-45.244-45.243c0-24.948,20.296-45.244,45.244-45.244
				c24.947,0,45.243,20.296,45.243,45.244c0,11.611-3.792,22.008-10.966,30.069l-2.297-2.044
				c6.665-7.489,10.188-17.18,10.188-28.025c0-23.252-18.917-42.169-42.169-42.169c-23.252,0-42.169,18.917-42.169,42.169
				c0,23.252,18.917,42.169,42.169,42.169V155.839z"/>
			<g>
				<path style="fill:#0B2835;" d="M156.023,176.223c-10.115,0-18.344-8.229-18.344-18.344c0-10.115,8.229-18.344,18.344-18.344
					c10.115,0,18.344,8.229,18.344,18.344C174.368,167.994,166.139,176.223,156.023,176.223z M156.023,142.609
					c-8.419,0-15.269,6.85-15.269,15.27c0,8.419,6.85,15.269,15.269,15.269c8.42,0,15.27-6.85,15.27-15.269
					C171.293,149.459,164.443,142.609,156.023,142.609z"/>
				<path style="fill:#0B2835;" d="M156.023,183.03c-13.869,0-25.151-11.283-25.151-25.151c0-7.434,2.526-14.182,6.931-18.515
					l2.156,2.192c-3.821,3.759-6.012,9.708-6.012,16.323c0,12.173,9.904,22.077,22.077,22.077c12.173,0,22.077-9.904,22.077-22.077
					c0-12.174-9.904-22.077-22.077-22.077c-1.501,0-3.002,0.152-4.46,0.45l-0.618-3.012c1.661-0.341,3.37-0.514,5.078-0.514
					c13.868,0,25.152,11.283,25.152,25.152S169.892,183.03,156.023,183.03z"/>
				<path style="fill:#0B2835;" d="M156.023,189.838c-17.622,0-31.959-14.337-31.959-31.959c0-7.086,2.271-13.798,6.568-19.41
					l2.441,1.869c-3.882,5.071-5.935,11.137-5.935,17.542c0,15.927,12.957,28.884,28.884,28.884
					c15.927,0,28.884-12.957,28.884-28.884c0-15.927-12.957-28.884-28.884-28.884c-0.554,0-1.104,0.015-1.65,0.046l-0.174-3.07
					c0.604-0.034,1.212-0.051,1.824-0.051c17.622,0,31.959,14.337,31.959,31.959S173.646,189.838,156.023,189.838z"/>
				<path style="fill:#0B2835;" d="M156.023,196.645c-21.376,0-38.766-17.391-38.766-38.766c0-9.443,3.434-18.541,9.67-25.618
					l2.307,2.033c-5.74,6.516-8.902,14.891-8.902,23.585c0,19.681,16.011,35.691,35.691,35.691
					c19.681,0,35.691-16.011,35.691-35.691s-16.011-35.692-35.691-35.692v-3.075c21.375,0,38.766,17.391,38.766,38.766
					S177.399,196.645,156.023,196.645z"/>
			</g>
			<path style="fill:#0B2835;" d="M156.024,203.968c-25.414,0-46.09-20.676-46.09-46.09c0-16.793,9.143-32.268,23.862-40.386
				l1.485,2.692c-13.738,7.577-22.273,22.02-22.273,37.693c0,23.719,19.296,43.015,43.015,43.015
				c23.719,0,43.015-19.296,43.015-43.015s-19.296-43.015-43.015-43.015v-3.075c25.414,0,46.09,20.676,46.09,46.09
				S181.438,203.968,156.024,203.968z"/>
			<path style="fill:#0B2835;" d="M156.024,210.9c-29.236,0-53.021-23.785-53.021-53.021c0-21.236,12.612-40.37,32.128-48.746
				l1.213,2.826c-18.386,7.891-30.267,25.916-30.267,45.92c0,27.54,22.406,49.946,49.946,49.946
				c27.54,0,49.946-22.406,49.946-49.946c0-27.54-22.406-49.946-49.946-49.946v-3.075c29.236,0,53.021,23.785,53.021,53.021
				S185.26,210.9,156.024,210.9z"/>
		</g>
	</g>
	<g>
		<g>
			<rect x="250" y="250" style="fill:#E9F2F2;" width="250" height="250"/>
		</g>
		<g>
			<polygon style="fill:#0B2835;" points="330.478,446.442 327.553,446.442 327.553,322.809 374.512,295.701 421.463,322.809 
				421.463,377.033 356.588,414.395 355.127,411.861 418.538,375.342 418.538,324.499 374.512,299.08 330.478,324.499 			"/>
			<path style="fill:none;" d="M342.291,331.157"/>
			<polygon style="fill:#0B2835;" points="343.753,446.388 340.828,446.388 340.828,330.312 374.512,310.871 408.188,330.312 
				408.188,369.2 363.041,395.311 361.577,392.779 405.262,367.513 405.262,332.001 374.512,314.249 343.753,332.001 			"/>
			<polygon style="fill:#0B2835;" points="350.395,446.169 347.47,446.169 347.47,334.141 374.512,318.53 401.554,334.141 
				401.554,365.371 363.005,387.657 361.54,385.124 398.629,363.684 398.629,335.831 374.512,321.909 350.395,335.831 			"/>
			<path style="fill:none;" d="M362.2,356.861"/>
			<path style="fill:#0B2835;" d="M337.119,446.442h-2.925V326.483l40.318-23.278l40.317,23.278v46.556l-54.054,31.194l-0.03-62.424
				l13.767-7.943l13.767,7.943v15.897l-24.594,14.207l0.013,27.257l48.206-27.819v-43.177l-37.392-21.589l-37.393,21.589V446.442z
				 M363.671,343.498l0.012,25.038l21.671-12.519v-12.518l-10.842-6.256L363.671,343.498z"/>
			<polygon style="fill:#0B2835;" points="357.036,446.315 354.111,446.315 354.111,337.979 374.512,326.197 394.913,337.979 
				394.913,361.534 362.979,380.36 361.494,377.841 391.988,359.862 391.988,339.668 374.512,329.576 357.036,339.668 			"/>
			<path style="fill:#0B2835;" d="M390.703,447.479c-14.728-14.737-29.414-29.404-34.922-34.872l2.061-2.076
				c5.51,5.471,20.2,20.141,34.929,34.88L390.703,447.479z"/>
			<path style="fill:#0B2835;" d="M409.239,447.481c-15.276-15.215-33.828-33.8-40.512-40.583l2.083-2.053
				c6.679,6.777,25.223,25.353,40.493,40.563L409.239,447.481z"/>
			<path style="fill:#0B2835;" d="M418.958,447.478c-18.369-18.423-38.339-38.354-44.518-44.428l2.051-2.085
				c6.927,6.811,28.513,28.375,44.539,44.447L418.958,447.478z"/>
			<path style="fill:#0B2835;" d="M400.462,447.477c-13.494-13.558-31.034-31.054-37.655-37.427l2.028-2.108
				c6.638,6.389,24.195,23.903,37.701,37.471L400.462,447.477z"/>
			<path style="fill:#0B2835;" d="M427.764,447.483c-17.275-17.161-40.284-40.211-47.333-47.525l2.106-2.03
				c6.813,7.069,29.952,30.257,47.29,47.479L427.764,447.483z"/>
		</g>
	</g>
	<g>
		<g>
			<rect y="250" style="fill:#B6CDCE;" width="250" height="250"/>
		</g>
		<g>
			<g>
				<g>
					<rect x="64.293" y="377.068" style="fill:#0B2835;" width="77.596" height="2.776"/>
					<rect x="64.263" y="388.589" style="fill:#0B2835;" width="87.875" height="2.776"/>
					<rect x="64.263" y="400.111" style="fill:#0B2835;" width="88.273" height="2.776"/>
					<rect x="64.263" y="411.643" style="fill:#0B2835;" width="88.273" height="2.776"/>
					<rect x="64.263" y="423.165" style="fill:#0B2835;" width="88.68" height="2.776"/>
					<rect x="64.263" y="434.687" style="fill:#0B2835;" width="88.948" height="2.776"/>
				</g>
				<g>
					<path style="fill:none;" d="M65.661,379.258"/>
					<polygon style="fill:#0B2835;" points="200.908,437.525 198.131,437.525 198.131,322.219 67.051,322.212 67.044,379.259 
						64.268,379.259 64.275,319.435 200.908,319.443 					"/>
					<path style="fill:none;" d="M77.185,378.254"/>
					<polygon style="fill:#0B2835;" points="189.386,437.518 186.61,437.518 186.61,333.741 78.573,333.733 78.573,378.26 
						75.796,378.26 75.796,330.957 189.386,330.964 					"/>
					<path style="fill:none;" d="M88.709,378.003"/>
					<polygon style="fill:#0B2835;" points="177.858,437.518 175.081,437.518 175.088,345.262 90.102,345.262 90.102,378.003 
						87.325,378.003 87.325,342.486 177.864,342.486 					"/>
					<path style="fill:none;" d="M100.233,377.877"/>
					<polygon style="fill:#0B2835;" points="166.329,437.518 163.552,437.518 163.56,356.79 101.623,356.784 101.623,377.882 
						98.847,377.882 98.847,354.007 166.336,354.014 					"/>
					<polygon style="fill:#0B2835;" points="154.807,437.525 152.031,437.525 152.038,368.312 113.145,368.305 113.145,378.132 
						110.368,378.132 110.368,365.529 154.814,365.535 					"/>
					<path style="fill:none;" d="M123.281,378.447"/>
					<rect x="123.281" y="377.059" style="fill:#0B2835;" width="29.661" height="2.776"/>
				</g>
			</g>
			<line style="fill:none;" x1="64.263" y1="402.888" x2="64.263" y2="400.111"/>
			<line style="fill:none;" x1="64.263" y1="414.419" x2="64.263" y2="411.643"/>
			<line style="fill:none;" x1="64.263" y1="437.464" x2="64.263" y2="434.687"/>
		</g>
	</g>
	<g>
		<g>
			<rect x="250" style="fill:#B6CDCE;" width="250" height="250"/>
		</g>
		<g>
			<polygon style="fill:#0B2835;" points="310.331,184.665 371.84,123.156 374.094,125.41 314.838,184.665 			"/>
			<polygon style="fill:#0B2835;" points="435.614,184.665 431.106,184.665 380.685,134.254 382.939,132.001 			"/>
			<polygon style="fill:#0B2835;" points="418.467,184.665 413.959,184.665 371.84,142.557 374.094,140.303 			"/>
			<path style="fill:#0B2835;" d="M392.379,124.282l52.423,52.422V71.869L392.379,124.282z M327.467,184.665l120.521-120.5V184.4
				l-57.863-57.863l-58.14,58.129H327.467z"/>
			<polygon style="fill:#0B2835;" points="418.562,63.794 372.967,109.378 327.382,63.794 331.89,63.794 372.967,104.871 
				414.055,63.794 			"/>
			<path style="fill:#0B2835;" d="M297.592,184.667V63.789l58.137,58.161c5.382-5.404,10.777-10.764,16.122-15.97l2.226,2.285
				c-11.415,11.118-23.07,22.956-34.341,34.403c-12.784,12.984-26.004,26.411-39.441,39.389L297.592,184.667z M300.781,71.491
				v105.654c12.48-12.133,24.769-24.616,36.681-36.714c5.276-5.358,10.636-10.803,16.017-16.22L300.781,71.491z"/>
			<polygon style="fill:#0B2835;" points="314.732,63.794 365.249,114.3 362.995,116.554 310.224,63.794 			"/>
			<polygon style="fill:#0B2835;" points="435.72,63.794 374.094,125.41 371.84,123.156 431.213,63.794 			"/>
			<path style="fill:#0B2835;" d="M306.226,163.513V85.617l39.193,38.767l-3.78,3.823c-11.827,11.96-24.055,24.328-32.709,32.694
				L306.226,163.513z M309.416,93.257v62.721c8.375-8.189,19.327-19.267,29.955-30.015l1.538-1.556L309.416,93.257z"/>
			<path style="fill:#0B2835;" d="M314.864,142.352v-35.574l17.92,17.726l-2.307,2.333c-4.664,4.717-9.488,9.595-12.909,12.903
				L314.864,142.352z M318.053,114.419v20.38c3.021-2.99,6.634-6.643,10.156-10.205l0.064-0.065L318.053,114.419z"/>
			<path style="fill:#0B2835;" d="M439.688,163.513l-2.703-2.613c-8.654-8.367-20.883-20.734-32.709-32.694l-3.78-3.823
				l39.193-38.767V163.513z M405.005,124.408l1.538,1.556c10.628,10.748,21.58,21.826,29.955,30.015V93.257L405.005,124.408z"/>
			<path style="fill:#0B2835;" d="M431.05,142.352l-2.703-2.613c-3.458-3.343-8.339-8.28-13.059-13.054l-2.157-2.182l17.92-17.726
				V142.352z M417.641,124.528c3.548,3.589,7.183,7.265,10.221,10.271v-20.38L417.641,124.528z"/>
		</g>
	</g>
</g>
</svg>
